<svg version="1.1" id="Layer_1" xmlns="http://www.w3.org/2000/svg" xmlns:xlink="http://www.w3.org/1999/xlink" x="0px" y="0px"
	 width="100%" viewBox="0 0 512 512" enable-background="new 0 0 512 512" xml:space="preserve">
<path fill="#FFF7CC" opacity="1.000000" stroke="none" 
	d="
M1.000000,445.000000 
	C1.000000,342.645233 1.000000,240.290466 1.282817,137.770676 
	C5.163275,134.345276 7.805886,129.923599 13.719997,129.941498 
	C55.133842,130.066803 96.548180,130.030045 137.978516,130.511215 
	C137.941772,154.642059 137.888885,178.306824 137.378098,201.980316 
	C115.608803,201.993164 94.297211,201.944504 72.986130,202.027985 
	C64.747978,202.060257 58.045933,208.860367 58.002777,216.897568 
	C57.959763,224.908554 64.662041,231.944748 72.782051,231.963257 
	C98.253952,232.021332 123.726204,231.924896 149.566559,231.920776 
	C173.792587,241.095810 197.622101,250.313217 221.520233,259.349121 
	C233.294357,263.800903 245.195343,267.917175 257.026642,272.642151 
	C257.018768,344.672791 257.023163,416.246552 256.639709,487.879517 
	C251.327530,487.613892 247.880539,484.975677 244.481216,481.511566 
	C239.340302,476.272766 233.561676,471.659729 227.879303,466.496582 
	C217.380249,459.540253 206.048965,456.080048 193.780121,456.037354 
	C166.807297,455.943451 139.833939,455.981415 112.860825,456.006012 
	C85.557198,456.030914 58.253632,456.104614 30.488628,456.094727 
	C27.040897,456.021698 24.028980,455.753601 21.072998,456.047668 
	C11.783266,456.971924 4.977523,453.614227 1.000000,445.000000 
M193.998703,274.005463 
	C153.833450,274.003845 113.668190,273.983063 73.502975,274.015747 
	C64.804939,274.022827 58.044273,280.611420 58.002556,288.903595 
	C57.962208,296.923401 64.672035,303.952362 72.811020,303.966553 
	C112.976196,304.036591 153.141724,304.052734 193.306641,303.928528 
	C198.306015,303.913086 202.437439,301.645569 205.436249,297.262115 
	C211.119537,288.954590 207.151459,276.419281 193.998703,274.005463 
M107.500061,346.000000 
	C101.336075,346.000366 95.171043,345.929108 89.008354,346.018707 
	C80.750870,346.138763 74.049538,352.841766 74.002563,360.888977 
	C73.955765,368.905457 80.660446,375.947540 88.786911,375.965515 
	C123.604820,376.042572 158.423264,376.063324 193.240814,375.927765 
	C198.432938,375.907562 202.934357,373.729553 205.589233,368.851440 
	C211.731476,357.565582 204.874283,346.027161 191.963455,346.010925 
	C164.142349,345.975952 136.321182,346.000061 107.500061,346.000000 
z"/>
<path fill="#F4E4A2" opacity="1.000000" stroke="none" 
	d="
M257.027588,487.820282 
	C257.023163,416.246552 257.018768,344.672791 257.006592,272.542603 
	C256.998840,271.986115 256.952362,271.788391 257.350098,271.875854 
	C260.136597,271.362549 262.612030,270.990784 264.900330,270.124542 
	C281.936890,263.675232 298.924774,257.097656 315.950623,250.619919 
	C332.497589,244.324356 349.071533,238.099609 366.126648,231.890045 
	C391.440369,231.957169 416.261292,232.039780 441.081573,231.947433 
	C446.122986,231.928680 450.574066,229.948029 453.238373,225.414810 
	C460.049164,213.826599 453.153320,202.023712 439.634613,202.006119 
	C418.478455,201.978561 397.322235,201.990112 376.095673,201.522125 
	C376.026947,177.393372 376.028595,153.727600 376.496277,130.033798 
	C417.844116,130.003372 458.726013,129.962708 499.607391,130.095551 
	C502.008179,130.103348 504.567322,131.201355 506.757751,132.353149 
	C509.025879,133.545776 510.934265,135.422501 513.000000,137.000000 
	C513.000000,239.354233 513.000000,341.708466 512.753296,444.770294 
	C509.718445,452.918732 504.346619,456.309204 496.421143,456.037415 
	C491.957916,455.884338 487.481720,456.109283 482.545349,456.102631 
	C428.412903,456.029510 374.745911,455.878204 321.080566,456.108856 
	C308.468048,456.163055 296.409454,459.272400 285.617798,467.030212 
	C280.181335,471.809204 274.760223,476.190491 270.056732,481.240204 
	C266.356232,485.213135 262.503876,488.099579 256.955658,488.108215 
	C256.961975,488.008667 257.027588,487.820282 257.027588,487.820282 
M401.500000,304.000000 
	C414.828766,303.999054 428.158752,304.104492 441.485870,303.956818 
	C449.341553,303.869781 455.949036,296.912140 455.997803,289.117554 
	C456.046570,281.321960 449.494446,274.076721 441.721893,274.055511 
	C401.236053,273.944885 360.749481,273.933228 320.264008,274.098694 
	C315.516235,274.118103 311.203796,276.256897 308.663696,280.709198 
	C301.989807,292.407166 308.886963,303.985565 322.526672,303.994843 
	C348.517792,304.012482 374.508881,304.000000 401.500000,304.000000 
M308.085571,368.215210 
	C310.690063,373.651581 315.453888,375.909760 321.027069,375.931427 
	C355.649139,376.065887 390.272003,376.030579 424.894501,375.976288 
	C433.137085,375.963348 439.900726,369.217926 439.997772,361.231445 
	C440.098053,352.981384 433.322998,346.036377 424.858582,346.023193 
	C390.236084,345.969238 355.613464,345.990570 320.990875,346.006409 
	C309.140717,346.011841 302.360901,359.563599 308.085571,368.215210 
z"/>
<path fill="#703C2F" opacity="1.000000" stroke="none" 
	d="
M257.000000,1.000000 
	C259.700623,1.000000 262.401276,1.000000 265.514038,1.370240 
	C266.982971,2.466743 267.942993,3.466837 269.110596,3.879409 
	C302.544342,15.693232 335.995667,27.457308 369.451172,39.209476 
	C394.974152,48.175140 420.513489,57.094257 446.030090,66.077965 
	C452.264069,68.272781 455.623108,73.342484 456.076172,79.358269 
	C456.857910,89.738625 451.793335,93.797638 446.268280,95.763977 
	C422.955505,104.060791 399.516968,112.004280 375.738098,120.093704 
	C338.499176,132.931747 301.653961,145.774460 264.777374,158.526398 
	C262.314850,159.377914 259.614258,159.541016 257.011749,160.011719 
	C256.999084,159.999146 256.973206,159.973267 256.981140,159.506348 
	C256.992737,106.359619 256.996368,53.679810 257.000000,1.000000 
z"/>
<path fill="#774D44" opacity="1.000000" stroke="none" 
	d="
M256.550018,1.000000 
	C256.996368,53.679810 256.992737,106.359619 256.587830,159.505386 
	C243.459900,155.694565 230.716583,151.466644 218.010406,147.129913 
	C197.430099,140.105667 176.884216,132.980515 156.301773,125.962578 
	C150.201950,123.882751 144.028183,122.019882 137.520401,120.006279 
	C114.446510,112.002449 91.749741,104.023392 69.029106,96.112900 
	C61.820396,93.603081 58.439735,88.889282 57.899796,82.132133 
	C57.168091,72.975235 62.570461,68.092003 68.655426,65.938141 
	C90.044640,58.367111 111.363457,50.596893 132.762238,43.053337 
	C169.721725,30.024290 206.727554,17.126631 243.681946,4.083233 
	C245.284409,3.517628 246.567917,2.048331 248.000000,0.999997 
	C250.700012,1.000000 253.400024,1.000000 256.550018,1.000000 
z"/>
<path fill="#000000" opacity="1.000000" stroke="none" 
	d="
M247.531342,0.999997 
	C246.567917,2.048331 245.284409,3.517628 243.681946,4.083233 
	C206.727554,17.126631 169.721725,30.024290 132.762238,43.053337 
	C111.363457,50.596893 90.044640,58.367111 68.655426,65.938141 
	C62.570461,68.092003 57.168091,72.975235 57.899796,82.132133 
	C58.439735,88.889282 61.820396,93.603081 69.029106,96.112900 
	C91.749741,104.023392 114.446510,112.002449 137.561050,120.455582 
	C137.967178,123.985855 137.964767,127.015503 137.962357,130.045135 
	C96.548180,130.030045 55.133842,130.066803 13.719997,129.941498 
	C7.805886,129.923599 5.163275,134.345276 1.282817,137.302826 
	C1.000000,91.718491 1.000000,46.436981 1.000000,1.000000 
	C83.020828,1.000000 165.041763,1.000000 247.531342,0.999997 
z"/>
<path fill="#000000" opacity="1.000000" stroke="none" 
	d="
M376.124451,120.076996 
	C399.516968,112.004280 422.955505,104.060791 446.268280,95.763977 
	C451.793335,93.797638 456.857910,89.738625 456.076172,79.358269 
	C455.623108,73.342484 452.264069,68.272781 446.030090,66.077965 
	C420.513489,57.094257 394.974152,48.175140 369.451172,39.209476 
	C335.995667,27.457308 302.544342,15.693232 269.110596,3.879409 
	C267.942993,3.466837 266.982971,2.466743 265.963104,1.370240 
	C348.239197,1.000000 430.478394,1.000000 513.000000,1.000000 
	C513.000000,46.020500 513.000000,91.041595 513.000000,136.531342 
	C510.934265,135.422501 509.025879,133.545776 506.757751,132.353149 
	C504.567322,131.201355 502.008179,130.103348 499.607391,130.095551 
	C458.726013,129.962708 417.844116,130.003372 376.485413,129.577515 
	C376.047180,126.125183 376.085815,123.101097 376.124451,120.076996 
z"/>
<path fill="#FDBF00" opacity="1.000000" stroke="none" 
	d="
M228.054062,466.780792 
	C233.561676,471.659729 239.340302,476.272766 244.481216,481.511566 
	C247.880539,484.975677 251.327530,487.613892 256.639709,487.879517 
	C257.027588,487.820282 256.961975,488.008667 256.967255,488.264709 
	C256.972534,488.520721 256.987152,488.834320 256.577026,488.904541 
	C248.415024,488.953552 242.904037,494.831635 240.775848,500.160919 
	C239.237396,504.013367 236.127319,507.231445 233.782211,510.774841 
	C233.361435,511.410645 233.252762,512.252991 233.000000,513.000000 
	C158.312439,513.000000 83.624878,513.000000 8.767962,512.718384 
	C6.065736,510.291229 3.532863,508.145630 0.999994,506.000000 
	C1.000000,485.979095 1.000000,465.958221 1.000000,445.468658 
	C4.977523,453.614227 11.783266,456.971924 21.072998,456.047668 
	C24.028980,455.753601 27.040897,456.021698 30.504589,456.551971 
	C30.988461,464.236938 31.162556,471.407928 30.931028,478.565765 
	C30.814608,482.165100 32.175571,483.062195 35.573643,483.057495 
	C94.064842,482.976288 152.556198,483.009552 211.047424,482.941681 
	C212.567230,482.939941 214.600403,482.551453 215.517761,481.544739 
	C219.863525,476.775574 223.904495,471.728699 228.054062,466.780792 
z"/>
<path fill="#FF9F00" opacity="1.000000" stroke="none" 
	d="
M256.987152,488.834320 
	C256.987152,488.834320 256.972534,488.520721 256.960938,488.364227 
	C262.503876,488.099579 266.356232,485.213135 270.056732,481.240204 
	C274.760223,476.190491 280.181335,471.809204 285.772644,467.332886 
	C289.796326,471.470337 293.590271,475.224518 296.790131,479.430664 
	C298.690613,481.928833 300.488037,483.118835 303.720551,483.077118 
	C317.690521,482.896759 331.664154,483.000000 345.636475,483.000000 
	C389.050446,483.000000 432.464386,483.000427 475.878357,482.999664 
	C482.995728,482.999542 482.995850,482.997162 482.999939,476.124329 
	C483.003906,469.470856 483.007568,462.817383 483.011383,456.163910 
	C487.481720,456.109283 491.957916,455.884338 496.421143,456.037415 
	C504.346619,456.309204 509.718445,452.918732 512.753296,445.238953 
	C513.000000,465.020905 513.000000,485.041779 512.717896,505.236694 
	C510.290527,507.940460 508.145233,510.470215 506.000000,513.000000 
	C431.312439,513.000000 356.624878,513.000000 281.765747,512.717651 
	C278.950500,508.707520 275.580139,505.291473 273.818909,501.185272 
	C270.458313,493.350250 265.635773,489.312164 256.987152,488.834320 
z"/>
<path fill="#000000" opacity="1.000000" stroke="none" 
	d="
M256.577026,488.904541 
	C265.635773,489.312164 270.458313,493.350250 273.818909,501.185272 
	C275.580139,505.291473 278.950500,508.707520 281.297058,512.717651 
	C265.312439,513.000000 249.624878,513.000000 233.468658,513.000000 
	C233.252762,512.252991 233.361435,511.410645 233.782211,510.774841 
	C236.127319,507.231445 239.237396,504.013367 240.775848,500.160919 
	C242.904037,494.831635 248.415024,488.953552 256.577026,488.904541 
z"/>
<path fill="#000000" opacity="1.000000" stroke="none" 
	d="
M0.999994,506.497925 
	C3.532863,508.145630 6.065736,510.291229 8.299305,512.718384 
	C5.752364,513.000000 3.504728,513.000000 1.000000,513.000000 
	C1.000000,511.001862 1.000000,508.998840 0.999994,506.497925 
z"/>
<path fill="#000000" opacity="1.000000" stroke="none" 
	d="
M506.497894,513.000000 
	C508.145233,510.470215 510.290527,507.940460 512.717896,505.705353 
	C513.000000,508.247650 513.000000,510.495270 513.000000,513.000000 
	C511.001862,513.000000 508.998840,513.000000 506.497894,513.000000 
z"/>
<path fill="#703C2F" opacity="1.000000" stroke="none" 
	d="
M137.978516,130.511230 
	C137.964767,127.015503 137.967178,123.985855 137.928940,120.506897 
	C144.028183,122.019882 150.201950,123.882751 156.301773,125.962578 
	C176.884216,132.980515 197.430099,140.105667 218.010406,147.129913 
	C230.716583,151.466644 243.459900,155.694565 256.579865,159.972305 
	C256.973206,159.973267 256.999084,159.999146 257.002686,160.477539 
	C256.988312,197.900085 256.970337,234.844238 256.952362,271.788391 
	C256.952362,271.788391 256.998840,271.986115 257.018860,272.085693 
	C245.195343,267.917175 233.294357,263.800903 221.520233,259.349121 
	C197.622101,250.313217 173.792587,241.095810 149.318665,231.676392 
	C141.093307,228.500076 137.722610,222.913147 137.966949,214.855652 
	C138.097031,210.566238 137.890564,206.266602 137.835999,201.971588 
	C137.888885,178.306824 137.941772,154.642059 137.978516,130.511230 
z"/>
<path fill="#FFDA2D" opacity="1.000000" stroke="none" 
	d="
M227.879303,466.496582 
	C223.904495,471.728699 219.863525,476.775574 215.517761,481.544739 
	C214.600403,482.551453 212.567230,482.939941 211.047424,482.941681 
	C152.556198,483.009552 94.064842,482.976288 35.573643,483.057495 
	C32.175571,483.062195 30.814608,482.165100 30.931028,478.565765 
	C31.162556,471.407928 30.988461,464.236938 30.966000,456.614136 
	C58.253632,456.104614 85.557198,456.030914 112.860825,456.006012 
	C139.833939,455.981415 166.807297,455.943451 193.780121,456.037354 
	C206.048965,456.080048 217.380249,459.540253 227.879303,466.496582 
z"/>
<path fill="#F4E4A2" opacity="1.000000" stroke="none" 
	d="
M194.437943,274.017181 
	C207.151459,276.419281 211.119537,288.954590 205.436249,297.262115 
	C202.437439,301.645569 198.306015,303.913086 193.306641,303.928528 
	C153.141724,304.052734 112.976196,304.036591 72.811020,303.966553 
	C64.672035,303.952362 57.962208,296.923401 58.002556,288.903595 
	C58.044273,280.611420 64.804939,274.022827 73.502975,274.015747 
	C113.668190,273.983063 153.833450,274.003845 194.437943,274.017181 
z"/>
<path fill="#F4E4A2" opacity="1.000000" stroke="none" 
	d="
M108.000046,346.000000 
	C136.321182,346.000061 164.142349,345.975952 191.963455,346.010925 
	C204.874283,346.027161 211.731476,357.565582 205.589233,368.851440 
	C202.934357,373.729553 198.432938,375.907562 193.240814,375.927765 
	C158.423264,376.063324 123.604820,376.042572 88.786911,375.965515 
	C80.660446,375.947540 73.955765,368.905457 74.002563,360.888977 
	C74.049538,352.841766 80.750870,346.138763 89.008354,346.018707 
	C95.171043,345.929108 101.336075,346.000366 108.000046,346.000000 
z"/>
<path fill="#F4E4A2" opacity="1.000000" stroke="none" 
	d="
M137.378098,201.980316 
	C137.890564,206.266602 138.097031,210.566238 137.966949,214.855652 
	C137.722610,222.913147 141.093307,228.500076 148.950439,231.643921 
	C123.726204,231.924896 98.253952,232.021332 72.782051,231.963257 
	C64.662041,231.944748 57.959763,224.908554 58.002777,216.897568 
	C58.045933,208.860367 64.747978,202.060257 72.986130,202.027985 
	C94.297211,201.944504 115.608803,201.993164 137.378098,201.980316 
z"/>
<path fill="#582B1F" opacity="1.000000" stroke="none" 
	d="
M257.350098,271.875854 
	C256.970337,234.844238 256.988312,197.900085 257.015350,160.490112 
	C259.614258,159.541016 262.314850,159.377914 264.777374,158.526398 
	C301.653961,145.774460 338.499176,132.931747 375.738098,120.093704 
	C376.085815,123.101097 376.047180,126.125183 376.019379,129.605560 
	C376.028595,153.727600 376.026947,177.393372 376.026764,201.986969 
	C376.018921,206.403534 375.728699,209.918823 376.055511,213.375809 
	C376.874664,222.040024 373.397095,228.108368 365.633606,231.843750 
	C349.071533,238.099609 332.497589,244.324356 315.950623,250.619919 
	C298.924774,257.097656 281.936890,263.675232 264.900330,270.124542 
	C262.612030,270.990784 260.136597,271.362549 257.350098,271.875854 
z"/>
<path fill="#FDBF00" opacity="1.000000" stroke="none" 
	d="
M482.545349,456.102631 
	C483.007568,462.817383 483.003906,469.470856 482.999939,476.124329 
	C482.995850,482.997162 482.995728,482.999542 475.878357,482.999664 
	C432.464386,483.000427 389.050446,483.000000 345.636475,483.000000 
	C331.664154,483.000000 317.690521,482.896759 303.720551,483.077118 
	C300.488037,483.118835 298.690613,481.928833 296.790131,479.430664 
	C293.590271,475.224518 289.796326,471.470337 286.097412,467.223358 
	C296.409454,459.272400 308.468048,456.163055 321.080566,456.108856 
	C374.745911,455.878204 428.412903,456.029510 482.545349,456.102631 
z"/>
<path fill="#FFCA8A" opacity="1.000000" stroke="none" 
	d="
M401.000000,304.000000 
	C374.508881,304.000000 348.517792,304.012482 322.526672,303.994843 
	C308.886963,303.985565 301.989807,292.407166 308.663696,280.709198 
	C311.203796,276.256897 315.516235,274.118103 320.264008,274.098694 
	C360.749481,273.933228 401.236053,273.944885 441.721893,274.055511 
	C449.494446,274.076721 456.046570,281.321960 455.997803,289.117554 
	C455.949036,296.912140 449.341553,303.869781 441.485870,303.956818 
	C428.158752,304.104492 414.828766,303.999054 401.000000,304.000000 
z"/>
<path fill="#FFCA8A" opacity="1.000000" stroke="none" 
	d="
M307.922058,367.866547 
	C302.360901,359.563599 309.140717,346.011841 320.990875,346.006409 
	C355.613464,345.990570 390.236084,345.969238 424.858582,346.023193 
	C433.322998,346.036377 440.098053,352.981384 439.997772,361.231445 
	C439.900726,369.217926 433.137085,375.963348 424.894501,375.976288 
	C390.272003,376.030579 355.649139,376.065887 321.027069,375.931427 
	C315.453888,375.909760 310.690063,373.651581 307.922058,367.866547 
z"/>
<path fill="#FFCA8A" opacity="1.000000" stroke="none" 
	d="
M366.126648,231.890045 
	C373.397095,228.108368 376.874664,222.040024 376.055511,213.375809 
	C375.728699,209.918823 376.018921,206.403534 376.097137,202.449951 
	C397.322235,201.990112 418.478455,201.978561 439.634613,202.006119 
	C453.153320,202.023712 460.049164,213.826599 453.238373,225.414810 
	C450.574066,229.948029 446.122986,231.928680 441.081573,231.947433 
	C416.261292,232.039780 391.440369,231.957169 366.126648,231.890045 
z"/>
</svg>